# xmcd
#
# Track frame offsets: 
#        150
#        21283
#        36570
#        48613
#        65585
#        81568
#        96605
#        112178
#        129188
#        143660
#
# Disc length: 2150 seconds
#
# Revision: 4
# Processed by: cddbd v1.5.2PL0 Copyright (c) Steve Scherf et al.
# Submitted via: ExactAudioCopy v0.99pb4
#
DISCID=9908640a
DTITLE=Various Artist - Billboard Top R&B Hits - 1974
DYEAR=1990
DGENRE=R&B
TTITLE0=Kool And The Gang - Hollywood Swinging
TTITLE1=William DeVaughan - Be Thankful For What You Got
TTITLE2=Bobby Womack - Lookin' For A Love
TTITLE3=Gladys Knight And The Pips - Best Thing That Ever Happened To 
TTITLE3=Me
TTITLE4=James Brown - The Payback
TTITLE5=George McCrae - Rock Your Baby
TTITLE6=Latimore - Let's Straighten It Out
TTITLE7=Tavares - She's Gone
TTITLE8=Al Green - Livin' For You
TTITLE9=Shirley Brown - Woman To Woman
EXTD=YEAR: 1990 ID3G: 42
EXTT0=Kool and The Gang\n
EXTT1=William DeVaughn\n
EXTT2=Bobby Womack\n
EXTT3=Gladys Knight and The Pips\n
EXTT4=James Brown\n
EXTT5=George McCrae\n
EXTT6=Latimore\n
EXTT7=Tavares\n
EXTT8=Al Green\n
EXTT9=Shirley Brown\n
PLAYORDER=
